<svg width="20" height="22" viewBox="0 0 20 22" fill="none" xmlns="http://www.w3.org/2000/svg">
<path d="M14.3083 18.4249C14.3872 18.5073 14.4316 18.6194 14.4316 18.7365C14.4316 18.8535 14.3872 18.9657 14.3083 19.0481L13.425 19.9785C13.3494 20.0633 13.2438 20.1115 13.1333 20.1115C13.0228 20.1115 12.9173 20.0633 12.8417 19.9785L5.18333 11.9119C5.06609 11.7886 5.00015 11.6212 5 11.4467V11.2185C5.00015 11.044 5.06609 10.8766 5.18333 10.7533L12.8417 2.68672C12.9173 2.60186 13.0228 2.55372 13.1333 2.55372C13.2438 2.55372 13.3494 2.60186 13.425 2.68672L14.3083 3.61714C14.3872 3.69954 14.4316 3.81172 14.4316 3.92874C14.4316 4.04576 14.3872 4.15794 14.3083 4.24034L7.575 11.3326L14.3083 18.4249Z" fill="#D6D7E1"/>
</svg>
